<svg viewBox="0 0 1498 400" xmlns="http://www.w3.org/2000/svg"><g><g><g><g><g><line x1="50" y1="378" x2="45" y2="378" style="visibility: inherit;" fill="rgb(0, 0, 0)" stroke="rgb(204, 204, 204)" stroke-width="1px"></line><line x1="50" y1="336" x2="45" y2="336" style="visibility: inherit;" fill="rgb(0, 0, 0)" stroke="rgb(204, 204, 204)" stroke-width="1px"></line><line x1="50" y1="294.00000000000006" x2="45" y2="294.00000000000006" style="visibility: inherit;" fill="rgb(0, 0, 0)" stroke="rgb(204, 204, 204)" stroke-width="1px"></line><line x1="50" y1="252.00000000000003" x2="45" y2="252.00000000000003" style="visibility: inherit;" fill="rgb(0, 0, 0)" stroke="rgb(204, 204, 204)" stroke-width="1px"></line><line x1="50" y1="209.99999999999997" x2="45" y2="209.99999999999997" style="visibility: inherit;" fill="rgb(0, 0, 0)" stroke="rgb(204, 204, 204)" stroke-width="1px"></line><line x1="50" y1="168.00000000000003" x2="45" y2="168.00000000000003" style="visibility: inherit;" fill="rgb(0, 0, 0)" stroke="rgb(204, 204, 204)" stroke-width="1px"></line><line x1="50" y1="126.00000000000001" x2="45" y2="126.00000000000001" style="visibility: inherit;" fill="rgb(0, 0, 0)" stroke="rgb(204, 204, 204)" stroke-width="1px"></line><line x1="50" y1="84.00000000000009" x2="45" y2="84.00000000000009" style="visibility: inherit;" fill="rgb(0, 0, 0)" stroke="rgb(204, 204, 204)" stroke-width="1px"></line><line x1="50" y1="42.00000000000002" x2="45" y2="42.00000000000002" style="visibility: inherit;" fill="rgb(0, 0, 0)" stroke="rgb(204, 204, 204)" stroke-width="1px"></line><line x1="50" y1="0" x2="45" y2="0" style="visibility: inherit;" fill="rgb(0, 0, 0)" stroke="rgb(204, 204, 204)" stroke-width="1px"></line></g><g transform="translate(40, 0)"><text x="0" y="378" dx="0em" dy="0.3em" style="text-anchor: end; visibility: hidden; font-family: Roboto, sans-serif; font-size: 12px; font-weight: 200;" fill="rgb(50, 49, 63)" stroke="none" stroke-width="1px">0.6</text><text x="0" y="336" dx="0em" dy="0.3em" style="text-anchor: end; visibility: inherit; font-family: Roboto, sans-serif; font-size: 12px; font-weight: 200;" fill="rgb(50, 49, 63)" stroke="none" stroke-width="1px">0.65</text><text x="0" y="294.00000000000006" dx="0em" dy="0.3em" style="text-anchor: end; visibility: inherit; font-family: Roboto, sans-serif; font-size: 12px; font-weight: 200;" fill="rgb(50, 49, 63)" stroke="none" stroke-width="1px">0.7</text><text x="0" y="252.00000000000003" dx="0em" dy="0.3em" style="text-anchor: end; visibility: inherit; font-family: Roboto, sans-serif; font-size: 12px; font-weight: 200;" fill="rgb(50, 49, 63)" stroke="none" stroke-width="1px">0.75</text><text x="0" y="209.99999999999997" dx="0em" dy="0.3em" style="text-anchor: end; visibility: inherit; font-family: Roboto, sans-serif; font-size: 12px; font-weight: 200;" fill="rgb(50, 49, 63)" stroke="none" stroke-width="1px">0.8</text><text x="0" y="168.00000000000003" dx="0em" dy="0.3em" style="text-anchor: end; visibility: inherit; font-family: Roboto, sans-serif; font-size: 12px; font-weight: 200;" fill="rgb(50, 49, 63)" stroke="none" stroke-width="1px">0.85</text><text x="0" y="126.00000000000001" dx="0em" dy="0.3em" style="text-anchor: end; visibility: inherit; font-family: Roboto, sans-serif; font-size: 12px; font-weight: 200;" fill="rgb(50, 49, 63)" stroke="none" stroke-width="1px">0.9</text><text x="0" y="84.00000000000009" dx="0em" dy="0.3em" style="text-anchor: end; visibility: inherit; font-family: Roboto, sans-serif; font-size: 12px; font-weight: 200;" fill="rgb(50, 49, 63)" stroke="none" stroke-width="1px">0.95</text><text x="0" y="42.00000000000002" dx="0em" dy="0.3em" style="text-anchor: end; visibility: inherit; font-family: Roboto, sans-serif; font-size: 12px; font-weight: 200;" fill="rgb(50, 49, 63)" stroke="none" stroke-width="1px">1</text><text x="0" y="0" dx="0em" dy="0.3em" style="text-anchor: end; visibility: hidden; font-family: Roboto, sans-serif; font-size: 12px; font-weight: 200;" fill="rgb(50, 49, 63)" stroke="none" stroke-width="1px">1.05</text></g><line x1="50" y1="0" x2="50" y2="378" fill="rgb(0, 0, 0)" stroke="rgb(204, 204, 204)" stroke-width="1px"></line></g></g><g transform="translate(50, 0)" clip-path="url(#clip_0)"><clipPath id="clip_0"><rect width="1448" height="378"></rect></clipPath><g><g><g><line x1="0" y1="0" x2="0" y2="378" fill="rgb(0, 0, 0)" stroke="rgb(60, 60, 60)" stroke-width="1px" opacity="0.25"></line><line x1="144.8" y1="0" x2="144.8" y2="378" fill="rgb(0, 0, 0)" stroke="rgb(60, 60, 60)" stroke-width="1px" opacity="0.25"></line><line x1="289.6" y1="0" x2="289.6" y2="378" fill="rgb(0, 0, 0)" stroke="rgb(60, 60, 60)" stroke-width="1px" opacity="0.25"></line><line x1="434.4" y1="0" x2="434.4" y2="378" fill="rgb(0, 0, 0)" stroke="rgb(60, 60, 60)" stroke-width="1px" opacity="0.25"></line><line x1="579.2" y1="0" x2="579.2" y2="378" fill="rgb(0, 0, 0)" stroke="rgb(60, 60, 60)" stroke-width="1px" opacity="0.25"></line><line x1="724" y1="0" x2="724" y2="378" fill="rgb(0, 0, 0)" stroke="rgb(60, 60, 60)" stroke-width="1px" opacity="0.25"></line><line x1="868.8" y1="0" x2="868.8" y2="378" fill="rgb(0, 0, 0)" stroke="rgb(60, 60, 60)" stroke-width="1px" opacity="0.25"></line><line x1="1013.5999999999999" y1="0" x2="1013.5999999999999" y2="378" fill="rgb(0, 0, 0)" stroke="rgb(60, 60, 60)" stroke-width="1px" opacity="0.25"></line><line x1="1158.4" y1="0" x2="1158.4" y2="378" fill="rgb(0, 0, 0)" stroke="rgb(60, 60, 60)" stroke-width="1px" opacity="0.25"></line><line x1="1303.2" y1="0" x2="1303.2" y2="378" fill="rgb(0, 0, 0)" stroke="rgb(60, 60, 60)" stroke-width="1px" opacity="0.25"></line><line x1="1448" y1="0" x2="1448" y2="378" fill="rgb(0, 0, 0)" stroke="rgb(60, 60, 60)" stroke-width="1px" opacity="0.25"></line></g><g><line x1="0" y1="378" x2="1448" y2="378" fill="rgb(0, 0, 0)" stroke="rgb(60, 60, 60)" stroke-width="1px" opacity="0.25"></line><line x1="0" y1="336" x2="1448" y2="336" fill="rgb(0, 0, 0)" stroke="rgb(60, 60, 60)" stroke-width="1px" opacity="0.25"></line><line x1="0" y1="294.00000000000006" x2="1448" y2="294.00000000000006" fill="rgb(0, 0, 0)" stroke="rgb(60, 60, 60)" stroke-width="1px" opacity="0.25"></line><line x1="0" y1="252.00000000000003" x2="1448" y2="252.00000000000003" fill="rgb(0, 0, 0)" stroke="rgb(60, 60, 60)" stroke-width="1px" opacity="0.25"></line><line x1="0" y1="209.99999999999997" x2="1448" y2="209.99999999999997" fill="rgb(0, 0, 0)" stroke="rgb(60, 60, 60)" stroke-width="1px" opacity="0.25"></line><line x1="0" y1="168.00000000000003" x2="1448" y2="168.00000000000003" fill="rgb(0, 0, 0)" stroke="rgb(60, 60, 60)" stroke-width="1px" opacity="0.25"></line><line x1="0" y1="126.00000000000001" x2="1448" y2="126.00000000000001" fill="rgb(0, 0, 0)" stroke="rgb(60, 60, 60)" stroke-width="1px" opacity="0.25"></line><line x1="0" y1="84.00000000000009" x2="1448" y2="84.00000000000009" fill="rgb(0, 0, 0)" stroke="rgb(60, 60, 60)" stroke-width="1px" opacity="0.25"></line><line x1="0" y1="42.00000000000002" x2="1448" y2="42.00000000000002" fill="rgb(0, 0, 0)" stroke="rgb(60, 60, 60)" stroke-width="1px" opacity="0.25"></line><line x1="0" y1="0" x2="1448" y2="0" fill="rgb(0, 0, 0)" stroke="rgb(60, 60, 60)" stroke-width="1px" opacity="0.25"></line></g></g></g><g><g><line x1="0" y1="881.9999999999999" x2="1448" y2="881.9999999999999" fill="rgb(0, 0, 0)" stroke="rgb(153, 153, 153)" stroke-width="1.5px"></line></g></g><g><g><line x1="144.8" y1="0" x2="144.8" y2="378" fill="rgb(0, 0, 0)" stroke="rgb(153, 153, 153)" stroke-width="1.5px"></line></g></g><g><g><g><g><g><path stroke="rgb(255, 112, 67)" stroke-width="2px" d="M147.696,492.8796536922455L150.59199999999998,325.43108654022217L153.488,492.32823085784906L156.384,372.8534002304077L159.28,492.8796536922455L162.17600000000002,493.0634529590606L165.072,308.7046022415161L167.96800000000002,298.9627904891968L170.864,234.26259469985965L173.76,394.9102635383606L176.656,455.9343738555908L179.552,353.92122459411615L182.448,258.70894861221313L185.344,277.0897264480591L188.24,223.96938514709475L191.136,358.1488080024719L194.032,320.10065746307373L196.92800000000003,398.0350012779236L199.824,356.49451446533203L202.72000000000003,362.19254207611084L205.61599999999999,357.5973601341247L208.51199999999997,390.8665294647216L211.408,331.129114151001L214.304,281.86870765686035L217.2,246.57769632339478L220.096,214.4113726615906L222.992,204.30196237564084L225.888,175.07657718658447L228.784,298.9627904891968L231.68,201.91247177124023L234.576,171.03284311294559L237.472,252.64332246780396L240.36800000000002,193.27350568771362L243.264,228.19691848754886L246.16000000000003,331.8643112182617L249.05599999999998,406.8577666282654L263.536,428.1794328689575L266.432,265.69367122650146L269.328,388.29323959350586L272.224,281.68490839004517L275.12,192.53830862045285L278.016,173.60613298416138L280.91200000000003,172.68708658218387L283.808,199.3391819000244L286.704,193.08970642089847L289.6,243.636757850647L292.49600000000004,224.70458221435547L295.392,167.90810537338257L298.288,180.59080553054812L301.18399999999997,211.1028356552124L304.08,332.4157590866089L306.976,176.1794228553772L309.872,186.8402810096741L312.768,210.91903638839725L315.664,223.78553581237796L318.56,294.73520708084106L321.456,225.99122714996335L324.35200000000003,163.49672269821167L327.248,205.95625591278076L330.144,173.05468511581424L333.04,188.67832374572757L335.93600000000004,217.90370893478396L338.832,233.52734756469724L341.728,142.72645425796512L344.62399999999997,279.8468155860901L347.52,165.51861476898193L350.416,147.505485534668L353.312,267.7155132293701L356.20799999999997,300.2494354248047L359.104,155.22540521621707L362,239.59297370910647L364.896,182.0612497329712L367.79200000000003,280.21446418762207L370.688,171.7680401802063L373.584,213.67612552642822L376.48,268.0831618309021L379.37600000000003,271.3916988372803L382.272,133.35229110717776L385.168,205.03720951080325L388.064,217.53611040115356L390.96000000000004,143.27790212631228L393.85600000000005,111.84682559967044L396.752,172.87088584899905L399.648,208.34574651718137L402.54400000000004,132.9846925735474L405.44000000000005,180.03940773010254L408.33599999999996,351.3479347229004L411.23199999999997,206.87525224685672L414.128,186.28883314132693L417.02399999999994,166.0700125694275L419.91999999999996,133.16849184036258L422.816,161.29103136062625L425.712,141.99125719070435L428.608,136.6608281135559L431.50399999999996,111.29542779922487L434.4,172.68708658218387L437.296,175.995623588562L440.192,137.57987451553348L443.08799999999997,194.92779922485352L445.984,140.15316438674927L448.88,204.85341024398804L451.776,179.48795986175537L454.672,139.23411798477176L457.568,148.05688333511353L460.464,98.79647684097291L463.36,114.42011547088623L466.25600000000003,98.61267757415771L469.152,148.2406826019287L472.048,111.29542779922487L474.944,131.1465997695923L477.84000000000003,168.27570390701294L480.73600000000005,147.505485534668L483.632,144.56454706192017L486.528,156.69584941864017L489.42400000000004,115.70676040649417L492.32000000000005,154.12255954742432L495.21600000000007,135.19038391113284L498.11199999999997,185.36978673934937L501.008,233.34354829788208L503.90399999999994,156.69584941864017L506.79999999999995,171.5842409133911L509.69599999999997,132.80089330673218L512.592,222.49889087677002L515.4879999999999,165.51861476898193L518.384,143.8292999267578L521.28,98.98032617568971L524.1759999999999,103.759307384491L527.072,183.71554327011108L529.968,289.7724266052246L532.864,271.57549810409546L535.76,194.00875282287598L538.656,150.44637393951416L541.552,128.75710916519165L544.448,91.44420576095582L547.344,147.68928480148315L550.24,360.72209787368774L553.136,219.00655460357666L556.032,361.4573450088501L558.928,232.9759497642517L561.8240000000001,254.8490138053894L564.72,164.04812049865723L567.616,135.92558097839355L570.5120000000001,125.63237142562869L573.408,114.97156333923341L576.304,87.4004216194153L579.2,84.09188461303714L582.096,119.9343438148499L584.9920000000001,171.03284311294559L587.888,226.72647428512573L590.784,130.41140270233154L593.68,262.2013349533081L596.576,236.83588457107544L599.472,198.6039347648621L602.3679999999999,121.40483808517459L605.264,195.2953977584839L608.16,156.32825088500977L611.0559999999999,151.36542034149173L613.952,130.04375410079956L616.848,144.93214559555057L619.744,104.31070518493657L622.64,224.88838148117065L625.536,115.89060974121097L628.432,107.98689079284671L631.328,414.76148557662964L634.224,189.78116941452026L637.12,157.79869508743286L640.016,92.54705142974858L642.912,111.47922706604007L645.808,108.17069005966191L648.7040000000001,136.10943031311035L651.6,295.10285568237305L654.496,223.41793727874756L657.392,130.41140270233154L660.288,221.57984447479248L663.1840000000001,287.75053453445435L666.08,316.4245219230652L668.976,276.35447931289673L671.8720000000001,342.7089686393738L674.768,284.258198261261L677.664,272.6783437728882L680.56,305.02846670150757L683.456,248.23193979263306L686.352,87.5842208862305L689.2479999999999,82.07004261016849L692.144,89.23851442337038L695.04,277.8249235153198L697.9359999999999,110.00873279571537L700.832,225.99122714996335L703.728,98.79647684097291L706.624,236.46828603744507L709.52,145.11599493026736L712.4159999999999,127.28666496276858L715.312,128.57330989837646L718.208,211.47048425674438L721.104,116.80960607528688L724,115.52296113967898L726.896,140.70461225509644L729.792,112.94967126846315L732.688,128.57330989837646L735.5840000000001,183.89934253692627L738.48,228.19691848754886L741.376,196.58204269409183L744.272,170.8489937782288L747.168,291.97811794281006L750.0640000000001,112.03062486648564L752.96,90.70895862579346L755.856,331.49671268463135L758.7520000000001,271.3916988372803L761.648,371.01530742645264L764.544,365.86872768402094L767.44,359.43545293807983L770.336,337.5623388290405L773.2320000000001,318.997811794281L776.128,312.38073778152466L779.024,173.05468511581424L781.9200000000001,214.4113726615906L784.816,181.50985193252563L787.7120000000001,179.67175912857056L790.6080000000001,105.04595232009889L793.504,119.56674528121951L796.4000000000001,144.56454706192017L799.296,77.47486066818239L802.1920000000001,93.64989709854129L805.0880000000001,163.86432123184204L807.984,255.21661233901975L810.8800000000001,242.90151071548462L813.7760000000001,91.62800502777102L816.6719999999999,219.00655460357666L819.5679999999999,118.46389961242676L822.4639999999999,99.53172397613528L825.3599999999999,115.70676040649417L828.256,138.3151216506958L831.1519999999999,95.48798990249635L834.0479999999999,196.03064489364624L836.944,239.40917444229123L839.8399999999999,174.52517938613894L842.736,123.79432868957522L845.632,317.1597189903259L848.5279999999999,297.4923462867737L851.424,384.24945545196533L854.3199999999999,305.5798645019531L857.216,256.5032572746277L860.112,91.07660722732545L863.0079999999999,107.43544292449954L865.904,152.10066747665405L868.8,83.90808534622195L871.696,145.85119199752808L874.592,182.79649686813357L877.4879999999999,171.03284311294559L880.384,158.53389215469363L883.28,324.14444160461426L886.1759999999999,343.6280150413513L889.072,141.25601005554202L891.968,119.01529741287233L894.864,219.37420320510864L897.76,108.53828859329224L900.656,99.1641254425049L903.552,114.23631620407104L906.448,116.07440900802617L909.344,154.8577566146851L912.24,148.05688333511353L915.136,136.6608281135559L918.032,142.9103035926819L920.928,180.40700626373294L923.8240000000001,105.96499872207644L926.72,189.96496868133545L929.616,197.68488836288452L932.5120000000001,175.62802505493164L935.408,118.46389961242676L938.304,166.80525970458987L941.2,141.4398093223572L944.096,142.5426549911499L946.9920000000001,145.6673927307129L949.888,146.58643913269043L952.784,166.43766117095947L955.6800000000001,152.10066747665405L958.576,146.21884059906006L961.4720000000001,95.85558843612674L964.368,90.15756082534793L967.264,195.66299629211426L970.1600000000001,110.5601806640625L973.056,151.18162107467654L975.9520000000001,284.258198261261L978.8480000000001,250.25383186340332L981.744,152.28446674346924L984.6400000000001,128.75710916519165L987.5360000000001,113.50106906890872L990.4320000000001,199.5229811668396L993.3280000000001,182.98029613494873L996.2239999999999,231.13785696029663L999.1199999999999,225.25603008270264L1002.016,209.6323914527893L1004.9119999999999,234.0787954330444L1007.8079999999999,79.31290340423585L1010.704,91.26040649414064L1013.5999999999999,94.20129489898686L1016.496,77.84245920181277L1019.3919999999999,124.52952575683595L1022.2879999999999,233.71114683151248L1025.184,112.39827346801758L1028.08,114.60391473770143L1030.9759999999999,162.39387702941895L1033.8719999999998,98.98032617568971L1036.768,96.03938770294192L1039.664,85.01093101501466L1042.56,81.15099620819093L1045.456,95.30414056777956L1048.3519999999999,86.1137766838074L1051.248,82.43764114379887L1054.144,193.8249535560608L1057.04,133.90373897552493L1059.936,330.5776662826538L1062.8319999999999,343.26041650772095L1065.728,183.89934253692627L1068.624,328.9234228134155L1071.52,162.21007776260376L1074.416,209.8161907196045L1077.312,105.04595232009889L1080.208,98.98032617568971L1083.104,132.9846925735474L1086,114.97156333923341L1088.896,152.46826601028442L1091.792,257.23850440979004L1094.688,312.1969385147095L1097.584,341.42232370376587L1100.48,374.3238444328308L1103.376,222.31509160995486L1106.272,366.7877240180969L1109.1680000000001,395.2779121398925L1112.064,358.7002058029175L1114.96,317.7111668586731L1117.856,257.05470514297485L1120.752,327.8205771446228L1123.6480000000001,355.2078695297241L1126.544,256.1356587409973L1129.44,240.87966871261597L1132.336,165.51861476898193L1135.232,146.77023839950564L1138.1280000000002,125.26477289199832L1141.0240000000001,124.71332502365114L1143.92,145.11599493026736L1146.816,114.0525169372559L1149.712,122.87528228759767L1152.608,144.93214559555057L1155.5040000000001,202.09627103805545L1158.4,273.41359090805054L1161.296,166.43766117095947L1164.192,214.22757339477536L1167.088,139.96936511993408L1169.9840000000002,164.23196983337402L1172.88,191.61926221847534L1175.776,231.873104095459L1178.672,252.82712173461914L1181.568,99.71552324295047L1184.464,235.36544036865234L1187.36,213.30852699279785L1190.2559999999999,200.99342536926272L1193.152,229.48361349105835L1196.048,148.4245319366455L1198.944,90.52515935897831L1201.84,144.56454706192017L1204.7359999999999,170.8489937782288L1207.6319999999998,168.27570390701294L1210.528,182.0612497329712L1213.424,157.79869508743286L1216.32,121.40483808517459L1219.216,125.26477289199832L1222.1119999999999,156.87964868545535L1225.008,129.8599548339844L1227.904,106.33259725570683L1230.8,90.34136009216313L1233.696,179.120361328125L1236.5919999999999,159.63673782348633L1239.488,120.8533902168274L1242.384,114.97156333923341L1245.28,107.43544292449954L1248.176,115.52296113967898L1251.072,188.86212301254272L1253.968,166.0700125694275L1256.864,80.4157490730286L1259.76,117.72865247726443L1262.656,106.88404512405397L1265.552,98.24507904052739L1268.448,108.17069005966191L1271.344,150.81402254104617L1274.24,93.2822985649109L1277.136,149.71117687225342L1280.032,300.4332847595215L1282.928,198.78773403167725L1285.824,147.68928480148315L1288.72,208.89714431762698L1291.616,102.65646171569824L1294.512,92.36325216293339L1297.4080000000001,94.20129489898686L1300.304,129.67615556716922" style="fill: none;" fill="none"></path></g><g><path stroke="rgb(187, 187, 187)" stroke-width="2px" d="M144.8,379.88318395614624L147.696,348.55745029449463L150.59199999999998,313.3386368751526L153.488,302.2931571006775L156.384,318.4992356300354L159.28,272.95927476882935L162.17600000000002,248.8764638900757L165.072,261.18946266174316L167.96800000000002,235.38651895523074L170.864,231.04072523117068L173.76,215.01574230194095L176.656,198.35694980621338L179.552,222.80190181732178L182.448,212.48070430755615L185.344,197.81376314163208L188.24,199.80556440353394L191.136,180.70230674743652L194.032,191.02350425720215L196.92800000000003,174.90794849395752L199.824,170.10949087142947L202.72000000000003,188.3073706626892L205.61599999999999,208.1349606513977L208.51199999999997,206.9579644203186L211.408,181.426589012146L214.304,179.25374221801758L217.2,173.00666999816895L220.096,171.1959643363953L222.992,161.32743072509766L225.888,146.5699667930603L228.784,157.88706493377686L231.68,161.96119022369388L234.576,140.59451293945315L237.472,153.1791300773621L240.36800000000002,159.96938896179202L243.264,167.30288457870483L246.16000000000003,167.12178897857666L249.05599999999998,156.9816870689392L251.95199999999997,147.38477182388309L254.84799999999998,153.72236680984497L257.74399999999997,149.37657308578494L260.64,153.26965284347534L263.536,137.60681104660034L266.432,145.48349332809448L269.328,131.90297555923462L272.224,153.72236680984497L275.12,152.002133846283L278.016,157.16273260116577L280.91200000000003,164.40570545196536L283.808,165.03946495056152L286.704,143.03902816772464L289.6,135.79605531692508L292.49600000000004,140.95665407180786L295.392,146.84158515930176L298.288,138.6027116775513L301.18399999999997,151.2778515815735L304.08,152.2737522125244L306.976,162.8665680885315L309.872,151.73056554794314L312.768,142.13365030288696L315.664,139.41756677627566L318.56,179.97802448272708L321.456,140.95665407180786L324.35200000000003,168.8419718742371L327.248,154.89931297302246L330.144,152.81698894500735L333.04,134.52858638763428L335.93600000000004,133.62320852279666L338.832,140.68508577346805L341.728,131.17869329452515L344.62399999999997,120.40483188629153L347.52,138.78380727767944L350.416,129.7301287651062L353.312,140.8661313056946L356.20799999999997,125.8370490074158L359.104,140.95665407180786L362,117.86979389190677L364.896,157.97758769989014L367.79200000000003,113.97671413421631L370.688,133.80425405502322L373.584,145.3929705619812L376.48,134.70963191986087L379.37600000000003,133.62320852279666L382.272,140.3228945732117L385.168,107.54859638214113L388.064,119.58997678756714L390.96000000000004,139.0553755760193L393.85600000000005,114.61047363281253L396.752,103.92713499069215L399.648,115.15371036529541L402.54400000000004,113.97671413421631L405.44000000000005,108.00131034851077L408.33599999999996,139.14594841003418L411.23199999999997,110.5362982749939L414.128,105.64731788635257L417.02399999999994,103.65551662445073L419.91999999999996,105.19465398788454L422.816,112.61867237091069L425.712,116.87389326095584L428.608,127.46670913696289L431.50399999999996,137.69733381271362L434.4,110.17415714263919L437.296,99.30977296829224L440.192,124.5695300102234L443.08799999999997,118.05088949203494L445.984,133.89482688903811L448.88,132.44621229171756L451.776,117.50765275955202L454.672,128.46260976791385L457.568,132.717830657959L460.464,126.01809453964236L463.36,108.72559261322023L466.25600000000003,96.8652577400208L469.152,107.54859638214113L472.048,110.89848947525026L474.944,117.41712999343872L477.84000000000003,114.0672369003296L480.73600000000005,120.31430912017825L483.632,114.70099639892581L486.528,111.07953500747684L489.42400000000004,112.34705400466922L492.32000000000005,120.13321352005008L495.21600000000007,125.65595340728761L498.11199999999997,113.88619136810303L501.008,112.61867237091069L503.90399999999994,115.2442331314087L506.79999999999995,108.54449701309206L509.69599999999997,97.40849447250368L512.592,112.9808135032654L515.4879999999999,101.30157423019413L518.384,99.30977296829224L521.28,104.74199008941655L524.1759999999999,90.61823558807374L527.072,92.88165521621706L529.968,95.77883434295659L532.864,108.09183311462407L535.76,111.17005777359012L538.656,96.95583057403569L541.552,90.61823558807374L544.448,86.27249193191531L547.344,84.37121343612675L550.24,99.30977296829224L553.136,87.81157922744755L556.032,93.3343191146851L558.928,107.27697801589967L561.8240000000001,105.37574958801271L564.72,104.56089448928836L567.616,93.3343191146851L570.5120000000001,106.37165021896364L573.408,90.79933118820193L576.304,88.08319759368898L579.2,82.8320760726929L582.096,78.21471405029298L584.9920000000001,86.00087356567384L587.888,90.61823558807374L590.784,82.37941217422485L593.68,121.49125528335574L596.576,118.14141225814822L599.472,115.51585149765016L602.3679999999999,100.12457799911503L605.264,100.66781473159791L608.16,97.40849447250368L611.0559999999999,117.68874835968019L613.952,108.36345148086548L616.848,101.75423812866212L619.744,89.71285772323611L622.64,93.2437963485718L625.536,86.00087356567384L628.432,91.07089948654179L631.328,89.62233495712283L634.224,96.23149824142457L637.12,85.00497293472291L640.016,87.17781972885133L642.912,85.54815959930424L645.808,93.15327358245852L648.7040000000001,115.60637426376346L651.6,111.8038172721863L654.496,121.67235088348393L657.392,108.72559261322023L660.288,102.38799762725834L663.1840000000001,95.14507484436037L666.08,100.3056735992432L668.976,105.91893625259404L671.8720000000001,104.01765775680543L674.768,97.2273988723755L677.664,85.36711406707767L680.56,78.93899631500244L683.456,78.12414121627809L686.352,84.19011783599856L689.2479999999999,83.46583557128906L692.144,89.71285772323611L695.04,90.16557168960576L697.9359999999999,98.4043951034546L700.832,101.9353337287903L703.728,105.91893625259404L706.624,102.75013875961305L709.52,108.00131034851077L712.4159999999999,104.65141725540165L715.312,99.85300970077517L718.208,101.12047863006595L721.104,96.68421220779422L724,97.68011283874515L726.896,100.3056735992432L729.792,99.76243686676028L732.688,93.96807861328126L735.5840000000001,96.68421220779422L738.48,87.35891532897952L741.376,94.14917421340945L744.272,88.89805269241337L747.168,93.87755584716798L750.0640000000001,97.13687610626222L752.96,111.8038172721863L755.856,113.43347740173343L758.7520000000001,104.01765775680543L761.648,95.50721597671512L764.544,96.77473497390751L767.44,79.48223304748538L770.336,84.28064060211186L773.2320000000001,87.4494380950928L776.128,101.21105146408084L779.024,85.18601846694949L781.9200000000001,110.71739387512208L784.816,101.66371536254884L787.7120000000001,138.42166614532474L790.6080000000001,96.41259384155276L793.504,103.92713499069215L796.4000000000001,96.1409754753113L799.296,94.14917421340945L802.1920000000001,97.40849447250368L805.0880000000001,81.02132034301762L807.984,77.39985895156863L810.8800000000001,81.20241594314575L813.7760000000001,72.14873743057255L816.6719999999999,71.42445516586305L819.5679999999999,89.53181219100954L822.4639999999999,81.02132034301762L825.3599999999999,84.55225896835327L828.256,89.26019382476808L831.1519999999999,88.17372035980226L834.0479999999999,100.12457799911503L836.944,84.19011783599856L839.8399999999999,86.27249193191531L842.736,80.20651531219484L845.632,77.49043178558352L848.5279999999999,84.009072303772L851.424,79.39166021347049L854.3199999999999,86.18191909790042L857.216,76.85667228698732L860.112,88.08319759368898L863.0079999999999,85.72925519943237L865.904,81.83617544174197L868.8,86.45353746414187L871.696,86.45353746414187L874.592,94.42079257965091L877.4879999999999,100.84891033172609L880.384,90.07499885559086L883.28,107.72969198226932L886.1759999999999,119.9521679878235L889.072,124.11681604385376L891.968,115.69689702987674L894.864,103.83661222457886L897.76,101.75423812866212L900.656,111.17005777359012L903.552,110.71739387512208L906.448,104.2892761230469L909.344,90.52771282196046L912.24,80.02541971206665L915.136,110.5362982749939L918.032,104.47037172317508L920.928,96.59363937377933L923.8240000000001,100.3056735992432L926.72,106.82431411743167L929.616,113.7050957679749L932.5120000000001,85.91030073165895L935.408,85.00497293472291L938.304,92.24789571762089L941.2,103.83661222457886L944.096,91.88575458526614L946.9920000000001,107.45807361602785L949.888,93.7870330810547L952.784,100.93943309783938L955.6800000000001,109.08773374557498L958.576,105.64731788635257L961.4720000000001,93.51541471481328L964.368,91.88575458526614L967.264,84.28064060211186L970.1600000000001,92.5195140838623L973.056,96.50311660766604L975.9520000000001,119.49945402145386L978.8480000000001,115.33475589752199L981.744,116.87389326095584L984.6400000000001,97.40849447250368L987.5360000000001,102.75013875961305L990.4320000000001,96.05045270919801L993.3280000000001,91.61413621902467L996.2239999999999,94.23969697952273L999.1199999999999,87.5400109291077L1002.016,83.55635833740236L1004.9119999999999,91.07089948654179L1007.8079999999999,90.70875835418704L1010.704,82.8320760726929L1013.5999999999999,81.83617544174197L1016.496,84.37121343612675L1019.3919999999999,90.61823558807374L1022.2879999999999,75.58915328979496L1025.184,108.9066381454468L1028.08,110.26472997665408L1030.9759999999999,106.55269575119021L1033.8719999999998,92.88165521621706L1036.768,86.63463306427006L1039.664,78.93899631500244L1042.56,84.73335456848146L1045.456,79.93489694595341L1048.3519999999999,74.59325265884401L1051.248,78.93899631500244L1054.144,94.87345647811891L1057.04,113.25243186950685L1059.936,113.07133626937868L1062.8319999999999,104.47037172317508L1065.728,103.74608945846562L1068.624,92.88165521621706L1071.52,99.1286773681641L1074.416,98.0422539710999L1077.312,99.219250202179L1080.208,103.65551662445073L1083.104,102.02585649490359L1086,102.11642932891849L1088.896,114.51995086669925L1091.792,111.44167613983159L1094.688,121.31020975112918L1097.584,122.30611038208009L1100.48,111.98491287231447L1103.376,116.0590882301331L1106.272,107.54859638214113L1109.1680000000001,102.84071159362794L1112.064,102.20695209503177L1114.96,106.82431411743167L1117.856,124.11681604385376L1120.752,117.14551162719731L1123.6480000000001,117.68874835968019L1126.544,124.11681604385376L1129.44,129.54903316497806L1132.336,136.339292049408L1135.232,125.92757177352908L1138.1280000000002,120.40483188629153L1141.0240000000001,124.20738887786865L1143.92,130.72602939605716L1146.816,138.78380727767944L1149.712,113.79566860198979L1152.608,117.5981755256653L1155.5040000000001,115.9685153961182L1158.4,130.36388826370242L1161.296,128.1909914016724L1164.192,142.40526866912842L1167.088,108.18235588073735L1169.9840000000002,111.89439010620119L1172.88,118.7751717567444L1175.776,124.20738887786865L1178.672,123.57362937927249L1181.568,126.28971290588379L1184.464,111.53224897384648L1187.36,104.19875335693361L1190.2559999999999,111.35115337371829L1193.152,141.3187952041626L1196.048,142.04312753677368L1198.944,142.31474590301514L1201.84,104.2892761230469L1204.7359999999999,95.23559761047366L1207.6319999999998,121.49125528335574L1210.528,102.11642932891849L1213.424,112.9808135032654L1216.32,118.41303062438965L1219.216,121.12911415100099L1222.1119999999999,112.07543563842775L1225.008,113.34295463562015L1227.904,102.65961599349976L1230.8,85.36711406707767L1233.696,101.75423812866212L1236.5919999999999,102.02585649490359L1239.488,123.84524774551394L1242.384,108.00131034851077L1245.28,101.39209699630742L1248.176,99.30977296829224L1251.072,86.45353746414187L1253.968,92.33841848373417L1256.864,85.27659130096438L1259.76,82.10779380798344L1262.656,133.62320852279666L1265.552,90.256094455719L1268.448,86.81567859649658L1271.344,86.90625143051147L1274.24,88.35481595993043L1277.136,81.38351154327394L1280.032,81.47403430938722L1282.928,77.21881341934207L1285.824,78.75790071487431L1288.72,79.30113744735719L1291.616,79.84437417984013L1294.512,75.40805768966679L1297.4080000000001,79.02951908111574L1300.304,91.88575458526614" style="fill: none;" fill="none"></path></g></g></g></g></g></g><g transform="translate(50, 378)" clip-path="url(#clip_1)"><clipPath id="clip_1"><rect width="1448" height="22"></rect></clipPath><g><g><line x1="0" y1="0" x2="0" y2="5" style="visibility: inherit;" fill="rgb(0, 0, 0)" stroke="rgb(204, 204, 204)" stroke-width="1px"></line><line x1="144.8" y1="0" x2="144.8" y2="5" style="visibility: inherit;" fill="rgb(0, 0, 0)" stroke="rgb(204, 204, 204)" stroke-width="1px"></line><line x1="289.6" y1="0" x2="289.6" y2="5" style="visibility: inherit;" fill="rgb(0, 0, 0)" stroke="rgb(204, 204, 204)" stroke-width="1px"></line><line x1="434.4" y1="0" x2="434.4" y2="5" style="visibility: inherit;" fill="rgb(0, 0, 0)" stroke="rgb(204, 204, 204)" stroke-width="1px"></line><line x1="579.2" y1="0" x2="579.2" y2="5" style="visibility: inherit;" fill="rgb(0, 0, 0)" stroke="rgb(204, 204, 204)" stroke-width="1px"></line><line x1="724" y1="0" x2="724" y2="5" style="visibility: inherit;" fill="rgb(0, 0, 0)" stroke="rgb(204, 204, 204)" stroke-width="1px"></line><line x1="868.8" y1="0" x2="868.8" y2="5" style="visibility: inherit;" fill="rgb(0, 0, 0)" stroke="rgb(204, 204, 204)" stroke-width="1px"></line><line x1="1013.5999999999999" y1="0" x2="1013.5999999999999" y2="5" style="visibility: inherit;" fill="rgb(0, 0, 0)" stroke="rgb(204, 204, 204)" stroke-width="1px"></line><line x1="1158.4" y1="0" x2="1158.4" y2="5" style="visibility: inherit;" fill="rgb(0, 0, 0)" stroke="rgb(204, 204, 204)" stroke-width="1px"></line><line x1="1303.2" y1="0" x2="1303.2" y2="5" style="visibility: inherit;" fill="rgb(0, 0, 0)" stroke="rgb(204, 204, 204)" stroke-width="1px"></line><line x1="1448" y1="0" x2="1448" y2="5" style="visibility: inherit;" fill="rgb(0, 0, 0)" stroke="rgb(204, 204, 204)" stroke-width="1px"></line></g><g transform="translate(0, 8)"><text x="0" y="0" dx="0em" dy="0.95em" style="text-anchor: middle; visibility: hidden; font-family: Roboto, sans-serif; font-size: 12px; font-weight: 200;" fill="rgb(50, 49, 63)" stroke="none" stroke-width="1px">-50</text><text x="144.8" y="0" dx="0em" dy="0.95em" style="text-anchor: middle; visibility: inherit; font-family: Roboto, sans-serif; font-size: 12px; font-weight: 200;" fill="rgb(50, 49, 63)" stroke="none" stroke-width="1px">0</text><text x="289.6" y="0" dx="0em" dy="0.95em" style="text-anchor: middle; visibility: inherit; font-family: Roboto, sans-serif; font-size: 12px; font-weight: 200;" fill="rgb(50, 49, 63)" stroke="none" stroke-width="1px">50</text><text x="434.4" y="0" dx="0em" dy="0.95em" style="text-anchor: middle; visibility: inherit; font-family: Roboto, sans-serif; font-size: 12px; font-weight: 200;" fill="rgb(50, 49, 63)" stroke="none" stroke-width="1px">100</text><text x="579.2" y="0" dx="0em" dy="0.95em" style="text-anchor: middle; visibility: inherit; font-family: Roboto, sans-serif; font-size: 12px; font-weight: 200;" fill="rgb(50, 49, 63)" stroke="none" stroke-width="1px">150</text><text x="724" y="0" dx="0em" dy="0.95em" style="text-anchor: middle; visibility: inherit; font-family: Roboto, sans-serif; font-size: 12px; font-weight: 200;" fill="rgb(50, 49, 63)" stroke="none" stroke-width="1px">200</text><text x="868.8" y="0" dx="0em" dy="0.95em" style="text-anchor: middle; visibility: inherit; font-family: Roboto, sans-serif; font-size: 12px; font-weight: 200;" fill="rgb(50, 49, 63)" stroke="none" stroke-width="1px">250</text><text x="1013.5999999999999" y="0" dx="0em" dy="0.95em" style="text-anchor: middle; visibility: inherit; font-family: Roboto, sans-serif; font-size: 12px; font-weight: 200;" fill="rgb(50, 49, 63)" stroke="none" stroke-width="1px">300</text><text x="1158.4" y="0" dx="0em" dy="0.95em" style="text-anchor: middle; visibility: inherit; font-family: Roboto, sans-serif; font-size: 12px; font-weight: 200;" fill="rgb(50, 49, 63)" stroke="none" stroke-width="1px">350</text><text x="1303.2" y="0" dx="0em" dy="0.95em" style="text-anchor: middle; visibility: inherit; font-family: Roboto, sans-serif; font-size: 12px; font-weight: 200;" fill="rgb(50, 49, 63)" stroke="none" stroke-width="1px">400</text><text x="1448" y="0" dx="0em" dy="0.95em" style="text-anchor: middle; visibility: hidden; font-family: Roboto, sans-serif; font-size: 12px; font-weight: 200;" fill="rgb(50, 49, 63)" stroke="none" stroke-width="1px">450</text></g><line x1="0" y1="0" x2="1448" y2="0" fill="rgb(0, 0, 0)" stroke="rgb(204, 204, 204)" stroke-width="1px"></line></g></g></g></g></svg>